<?xml version="1.0" standalone="no"?>
<!DOCTYPE svg PUBLIC "-//W3C//DTD SVG 20010904//EN"
 "http://www.w3.org/TR/2001/REC-SVG-20010904/DTD/svg10.dtd">
<svg version="1.0" xmlns="http://www.w3.org/2000/svg"
 width="500.000000pt" height="500.000000pt" viewBox="0 0 500.000000 500.000000"
 preserveAspectRatio="xMidYMid meet">

<g transform="translate(0.000000,500.000000) scale(0.100000,-0.100000)"
fill="#000000" stroke="none">
<path d="M830 4074 c29 -76 107 -208 166 -283 124 -154 309 -273 511 -329 l98
-27 550 -1 c441 -1 580 -4 701 -18 376 -41 661 -121 899 -251 117 -64 195
-123 319 -244 59 -58 106 -97 103 -86 -3 11 -13 47 -22 80 -107 394 -252 646
-481 837 -194 161 -390 254 -666 315 l-123 27 -1032 3 -1033 4 10 -27z"/>
<path d="M3308 3173 c137 -197 198 -377 209 -618 19 -411 -144 -738 -441 -884
-162 -80 -187 -84 -578 -88 l-348 -5 0 134 c0 248 -27 364 -116 498 -106 160
-310 269 -506 270 l-58 0 0 -791 0 -790 688 3 c660 4 692 5 805 26 564 107
967 455 1135 982 91 285 92 497 5 704 -77 184 -252 351 -476 456 -68 32 -320
130 -334 130 -3 0 4 -12 15 -27z"/>
</g>
</svg>
